<mxfile host="app.diagrams.net" modified="2021-01-13T12:27:47.098Z" agent="5.0 (Windows NT 10.0; Win64; x64) AppleWebKit/537.36 (KHTML, like Gecko) Chrome/87.0.4280.141 Safari/537.36" etag="OQ_0Apiex7CE8Tz-x36z" version="14.1.9" type="github">
  <diagram id="rqI_ppBprp_Sd8-UaLiR" name="Page-1">
    <mxGraphModel dx="1865" dy="580" grid="1" gridSize="10" guides="1" tooltips="1" connect="1" arrows="1" fold="1" page="1" pageScale="1" pageWidth="827" pageHeight="1169" math="1" shadow="0">
      <root>
        <mxCell id="0" />
        <mxCell id="1" parent="0" />
        <mxCell id="YjNDBlbt8UtDI5Ee4jb6-37" style="edgeStyle=orthogonalEdgeStyle;rounded=0;orthogonalLoop=1;jettySize=auto;html=1;exitX=0.5;exitY=1;exitDx=0;exitDy=0;entryX=0.5;entryY=0;entryDx=0;entryDy=0;" parent="1" source="YjNDBlbt8UtDI5Ee4jb6-34" target="YjNDBlbt8UtDI5Ee4jb6-36" edge="1">
          <mxGeometry relative="1" as="geometry" />
        </mxCell>
        <mxCell id="YjNDBlbt8UtDI5Ee4jb6-34" value="" style="rounded=0;whiteSpace=wrap;html=1;" parent="1" vertex="1">
          <mxGeometry x="270" y="340" width="140" height="60" as="geometry" />
        </mxCell>
        <mxCell id="YjNDBlbt8UtDI5Ee4jb6-31" value="" style="edgeStyle=orthogonalEdgeStyle;rounded=0;orthogonalLoop=1;jettySize=auto;html=1;" parent="1" source="YjNDBlbt8UtDI5Ee4jb6-27" target="YjNDBlbt8UtDI5Ee4jb6-30" edge="1">
          <mxGeometry relative="1" as="geometry" />
        </mxCell>
        <mxCell id="YjNDBlbt8UtDI5Ee4jb6-27" value="" style="rounded=0;whiteSpace=wrap;html=1;" parent="1" vertex="1">
          <mxGeometry x="305" y="160" width="70" height="60" as="geometry" />
        </mxCell>
        <mxCell id="YjNDBlbt8UtDI5Ee4jb6-3" value="" style="edgeStyle=orthogonalEdgeStyle;rounded=0;orthogonalLoop=1;jettySize=auto;html=1;entryX=0.5;entryY=0;entryDx=0;entryDy=0;" parent="1" source="YjNDBlbt8UtDI5Ee4jb6-1" target="YjNDBlbt8UtDI5Ee4jb6-4" edge="1">
          <mxGeometry relative="1" as="geometry" />
        </mxCell>
        <mxCell id="YjNDBlbt8UtDI5Ee4jb6-1" value="" style="ellipse;whiteSpace=wrap;html=1;rounded=0;shadow=0;comic=0;labelBackgroundColor=none;strokeWidth=1;fillColor=#000000;fontFamily=Verdana;fontSize=12;align=center;" parent="1" vertex="1">
          <mxGeometry x="80" y="80" width="40" height="40" as="geometry" />
        </mxCell>
        <mxCell id="YjNDBlbt8UtDI5Ee4jb6-5" style="edgeStyle=orthogonalEdgeStyle;rounded=0;orthogonalLoop=1;jettySize=auto;html=1;exitX=0.5;exitY=1;exitDx=0;exitDy=0;entryX=0.5;entryY=0;entryDx=0;entryDy=0;" parent="1" source="YjNDBlbt8UtDI5Ee4jb6-4" edge="1">
          <mxGeometry relative="1" as="geometry">
            <mxPoint x="100" y="220" as="targetPoint" />
          </mxGeometry>
        </mxCell>
        <mxCell id="YjNDBlbt8UtDI5Ee4jb6-4" value="Задаём три точки на поверхности модели и модель в виде набора рёбер" style="rounded=1;whiteSpace=wrap;html=1;shadow=0;comic=0;labelBackgroundColor=none;strokeWidth=1;fontFamily=Verdana;fontSize=12;align=center;arcSize=50;" parent="1" vertex="1">
          <mxGeometry x="20" y="140" width="160" height="60" as="geometry" />
        </mxCell>
        <mxCell id="YjNDBlbt8UtDI5Ee4jb6-11" style="edgeStyle=orthogonalEdgeStyle;rounded=0;orthogonalLoop=1;jettySize=auto;html=1;exitX=0.5;exitY=1;exitDx=0;exitDy=0;entryX=0.5;entryY=0;entryDx=0;entryDy=0;" parent="1" source="YjNDBlbt8UtDI5Ee4jb6-6" target="YjNDBlbt8UtDI5Ee4jb6-10" edge="1">
          <mxGeometry relative="1" as="geometry" />
        </mxCell>
        <mxCell id="YjNDBlbt8UtDI5Ee4jb6-6" value="Определяем плоскость по трём точкам, &lt;br&gt;нормаль, &lt;br&gt;расстояние от плоскости до нормали,&lt;br&gt;приближение к плоскости по нормали при прохождении отрезка" style="rounded=1;whiteSpace=wrap;html=1;shadow=0;comic=0;labelBackgroundColor=none;strokeWidth=1;fontFamily=Verdana;fontSize=12;align=center;arcSize=50;" parent="1" vertex="1">
          <mxGeometry x="-45" y="380" width="290" height="80" as="geometry" />
        </mxCell>
        <mxCell id="YjNDBlbt8UtDI5Ee4jb6-23" value="" style="edgeStyle=orthogonalEdgeStyle;rounded=0;orthogonalLoop=1;jettySize=auto;html=1;" parent="1" source="YjNDBlbt8UtDI5Ee4jb6-8" target="YjNDBlbt8UtDI5Ee4jb6-6" edge="1">
          <mxGeometry relative="1" as="geometry" />
        </mxCell>
        <mxCell id="YjNDBlbt8UtDI5Ee4jb6-8" value="" style="rounded=0;whiteSpace=wrap;html=1;shadow=0;comic=0;labelBackgroundColor=none;strokeWidth=1;fontFamily=Verdana;fontSize=12;align=center;arcSize=50;" parent="1" vertex="1">
          <mxGeometry x="30" y="220" width="140" height="120" as="geometry" />
        </mxCell>
        <mxCell id="YjNDBlbt8UtDI5Ee4jb6-32" style="edgeStyle=orthogonalEdgeStyle;rounded=0;orthogonalLoop=1;jettySize=auto;html=1;exitX=1;exitY=0.5;exitDx=0;exitDy=0;entryX=0.5;entryY=0;entryDx=0;entryDy=0;" parent="1" source="YjNDBlbt8UtDI5Ee4jb6-10" target="YjNDBlbt8UtDI5Ee4jb6-27" edge="1">
          <mxGeometry relative="1" as="geometry">
            <mxPoint x="280.0000000000002" y="176.66666666666666" as="targetPoint" />
            <Array as="points">
              <mxPoint x="260" y="560" />
              <mxPoint x="260" y="140" />
              <mxPoint x="340" y="140" />
            </Array>
          </mxGeometry>
        </mxCell>
        <mxCell id="YjNDBlbt8UtDI5Ee4jb6-10" value="&lt;span style=&quot;text-align: left ; background-color: rgb(255 , 255 , 255)&quot;&gt;&lt;font face=&quot;courier new, courier, monospace&quot;&gt;&lt;span style=&quot;font-size: 13px&quot;&gt;&lt;br&gt;&lt;/span&gt;&lt;/font&gt;&lt;/span&gt;" style="rounded=0;whiteSpace=wrap;html=1;shadow=0;comic=0;labelBackgroundColor=none;strokeWidth=1;fontFamily=Verdana;fontSize=12;align=center;arcSize=50;" parent="1" vertex="1">
          <mxGeometry x="25" y="480" width="150" height="160" as="geometry" />
        </mxCell>
        <mxCell id="YjNDBlbt8UtDI5Ee4jb6-18" value="&lt;span style=&quot;text-align: left ; background-color: rgb(255 , 255 , 255)&quot;&gt;&lt;font face=&quot;courier new, courier, monospace&quot;&gt;&lt;span style=&quot;font-size: 13px&quot;&gt;$$Ax+By+Cz+D=0$$&lt;br&gt;&lt;br&gt;&lt;/span&gt;&lt;/font&gt;&lt;/span&gt;" style="rounded=0;whiteSpace=wrap;html=1;shadow=0;comic=0;labelBackgroundColor=none;strokeWidth=1;fontFamily=Verdana;fontSize=12;align=center;arcSize=50;strokeColor=none;" parent="1" vertex="1">
          <mxGeometry x="27.5" y="490" width="145" height="50" as="geometry" />
        </mxCell>
        <mxCell id="YjNDBlbt8UtDI5Ee4jb6-15" value="&lt;span style=&quot;text-align: left ; background-color: rgb(255 , 255 , 255)&quot;&gt;&lt;font face=&quot;courier new, courier, monospace&quot;&gt;&lt;span style=&quot;font-size: 13px&quot;&gt;$$N =&amp;nbsp; \frac{ \bar{B} - \bar{A}\times \bar{C}-\bar{A}}{\mid \bar{B} - \bar{A}\times \bar{C}-\bar{A}\mid}$$&lt;/span&gt;&lt;br&gt;&lt;/font&gt;&lt;/span&gt;" style="rounded=0;whiteSpace=wrap;html=1;shadow=0;comic=0;labelBackgroundColor=none;strokeWidth=1;fontFamily=Verdana;fontSize=12;align=center;arcSize=50;strokeColor=none;" parent="1" vertex="1">
          <mxGeometry x="32.5" y="520" width="135" height="50" as="geometry" />
        </mxCell>
        <mxCell id="YjNDBlbt8UtDI5Ee4jb6-14" value="&lt;span style=&quot;text-align: left ; background-color: rgb(255 , 255 , 255)&quot;&gt;&lt;font face=&quot;courier new, courier, monospace&quot;&gt;&lt;span style=&quot;font-size: 13px&quot;&gt;$$d = \overline{N} \cdot\overline{A - X_{i}}$$&lt;/span&gt;&lt;br&gt;&lt;br&gt;&lt;/font&gt;&lt;/span&gt;" style="rounded=0;whiteSpace=wrap;html=1;shadow=0;comic=0;labelBackgroundColor=none;strokeWidth=1;fontFamily=Verdana;fontSize=12;align=center;arcSize=50;strokeColor=none;" parent="1" vertex="1">
          <mxGeometry x="43.75" y="580" width="112.5" height="30" as="geometry" />
        </mxCell>
        <mxCell id="YjNDBlbt8UtDI5Ee4jb6-17" value="&lt;span style=&quot;text-align: left ; background-color: rgb(255 , 255 , 255)&quot;&gt;&lt;font face=&quot;courier new, courier, monospace&quot;&gt;&lt;span style=&quot;font-size: 13px&quot;&gt;$$e = \overline{N} \cdot\overline{Y_{i} - X_{i}} $$&lt;/span&gt;&lt;br&gt;&lt;/font&gt;&lt;/span&gt;" style="rounded=0;whiteSpace=wrap;html=1;shadow=0;comic=0;labelBackgroundColor=none;strokeWidth=1;fontFamily=Verdana;fontSize=12;align=center;arcSize=50;strokeColor=none;" parent="1" vertex="1">
          <mxGeometry x="55" y="610" width="90" height="20" as="geometry" />
        </mxCell>
        <mxCell id="YjNDBlbt8UtDI5Ee4jb6-21" value="&lt;span style=&quot;font-family: &amp;#34;courier new&amp;#34; , &amp;#34;courier&amp;#34; , monospace ; font-size: 13px ; text-align: left ; background-color: rgb(255 , 255 , 255)&quot;&gt;$$\vec{V}=(v1, v2, v3)$$&lt;/span&gt;" style="text;html=1;strokeColor=none;fillColor=none;align=center;verticalAlign=middle;whiteSpace=wrap;rounded=0;" parent="1" vertex="1">
          <mxGeometry x="80" y="230" width="40" height="20" as="geometry" />
        </mxCell>
        <mxCell id="YjNDBlbt8UtDI5Ee4jb6-22" value="&lt;span style=&quot;font-family: &amp;#34;courier new&amp;#34; , &amp;#34;courier&amp;#34; , monospace ; font-size: 13px ; text-align: left ; background-color: rgb(255 , 255 , 255)&quot;&gt;\[R = \begin{bmatrix}X_{1} &amp;amp; Y_{1} \\X_{2} &amp;amp; Y_{2}&amp;nbsp; \\... &amp;amp; ...&amp;nbsp; \\X_{i} &amp;amp; Y_{i} \end{bmatrix}\]&lt;/span&gt;" style="text;html=1;strokeColor=none;fillColor=none;align=center;verticalAlign=middle;whiteSpace=wrap;rounded=0;" parent="1" vertex="1">
          <mxGeometry x="80" y="290" width="40" height="20" as="geometry" />
        </mxCell>
        <mxCell id="YjNDBlbt8UtDI5Ee4jb6-26" value="&lt;span style=&quot;font-family: &amp;#34;verdana&amp;#34;&quot;&gt;Если $$e \neq 0$$&amp;nbsp;&lt;/span&gt;" style="text;html=1;strokeColor=none;fillColor=none;align=center;verticalAlign=middle;whiteSpace=wrap;rounded=0;" parent="1" vertex="1">
          <mxGeometry x="315" y="190" width="50" height="20" as="geometry" />
        </mxCell>
        <mxCell id="YjNDBlbt8UtDI5Ee4jb6-35" style="edgeStyle=orthogonalEdgeStyle;rounded=0;orthogonalLoop=1;jettySize=auto;html=1;exitX=0.5;exitY=1;exitDx=0;exitDy=0;entryX=0.5;entryY=0;entryDx=0;entryDy=0;" parent="1" source="YjNDBlbt8UtDI5Ee4jb6-30" target="YjNDBlbt8UtDI5Ee4jb6-34" edge="1">
          <mxGeometry relative="1" as="geometry" />
        </mxCell>
        <mxCell id="YjNDBlbt8UtDI5Ee4jb6-30" value="Находим точки пересечения" style="rounded=1;whiteSpace=wrap;html=1;shadow=0;comic=0;labelBackgroundColor=none;strokeWidth=1;fontFamily=Verdana;fontSize=12;align=center;arcSize=50;" parent="1" vertex="1">
          <mxGeometry x="275" y="260" width="130" height="40" as="geometry" />
        </mxCell>
        <mxCell id="YjNDBlbt8UtDI5Ee4jb6-33" value="\[O_{i} = X_{i}+W\star \frac{d}{e}\]" style="text;html=1;strokeColor=none;fillColor=none;align=center;verticalAlign=middle;whiteSpace=wrap;rounded=0;" parent="1" vertex="1">
          <mxGeometry x="265" y="360" width="140" height="20" as="geometry" />
        </mxCell>
        <mxCell id="YjNDBlbt8UtDI5Ee4jb6-36" value="" style="shape=mxgraph.bpmn.shape;html=1;verticalLabelPosition=bottom;labelBackgroundColor=#ffffff;verticalAlign=top;perimeter=ellipsePerimeter;outline=end;symbol=terminate;rounded=0;shadow=0;comic=0;strokeWidth=1;fontFamily=Verdana;fontSize=12;align=center;" parent="1" vertex="1">
          <mxGeometry x="320" y="450" width="40" height="40" as="geometry" />
        </mxCell>
        <mxCell id="YjNDBlbt8UtDI5Ee4jb6-40" style="edgeStyle=orthogonalEdgeStyle;rounded=0;orthogonalLoop=1;jettySize=auto;html=1;exitX=0.5;exitY=1;exitDx=0;exitDy=0;entryX=0.5;entryY=0;entryDx=0;entryDy=0;" parent="1" source="YjNDBlbt8UtDI5Ee4jb6-38" target="YjNDBlbt8UtDI5Ee4jb6-42" edge="1">
          <mxGeometry relative="1" as="geometry">
            <mxPoint x="-520" y="139.99999999999994" as="targetPoint" />
          </mxGeometry>
        </mxCell>
        <mxCell id="YjNDBlbt8UtDI5Ee4jb6-38" value="" style="ellipse;whiteSpace=wrap;html=1;rounded=0;shadow=0;comic=0;labelBackgroundColor=none;strokeWidth=1;fillColor=#000000;fontFamily=Verdana;fontSize=12;align=center;" parent="1" vertex="1">
          <mxGeometry x="-540" y="105" width="40" height="40" as="geometry" />
        </mxCell>
        <mxCell id="YjNDBlbt8UtDI5Ee4jb6-44" style="edgeStyle=orthogonalEdgeStyle;rounded=0;orthogonalLoop=1;jettySize=auto;html=1;exitX=0.5;exitY=1;exitDx=0;exitDy=0;entryX=0.5;entryY=0;entryDx=0;entryDy=0;" parent="1" source="YjNDBlbt8UtDI5Ee4jb6-42" target="YjNDBlbt8UtDI5Ee4jb6-43" edge="1">
          <mxGeometry relative="1" as="geometry" />
        </mxCell>
        <mxCell id="YjNDBlbt8UtDI5Ee4jb6-42" value="Поиск и установка смежных треугольников" style="rounded=1;whiteSpace=wrap;html=1;shadow=0;comic=0;labelBackgroundColor=none;strokeWidth=1;fontFamily=Verdana;fontSize=12;align=center;arcSize=50;" parent="1" vertex="1">
          <mxGeometry x="-600" y="180" width="160" height="40" as="geometry" />
        </mxCell>
        <mxCell id="YjNDBlbt8UtDI5Ee4jb6-46" style="edgeStyle=orthogonalEdgeStyle;rounded=0;orthogonalLoop=1;jettySize=auto;html=1;exitX=0.5;exitY=1;exitDx=0;exitDy=0;" parent="1" source="YjNDBlbt8UtDI5Ee4jb6-43" target="YjNDBlbt8UtDI5Ee4jb6-45" edge="1">
          <mxGeometry relative="1" as="geometry" />
        </mxCell>
        <mxCell id="YjNDBlbt8UtDI5Ee4jb6-43" value="Поиск плоскостей по критерию" style="rounded=1;whiteSpace=wrap;html=1;shadow=0;comic=0;labelBackgroundColor=none;strokeWidth=1;fontFamily=Verdana;fontSize=12;align=center;arcSize=50;" parent="1" vertex="1">
          <mxGeometry x="-600" y="240" width="160" height="40" as="geometry" />
        </mxCell>
        <mxCell id="YjNDBlbt8UtDI5Ee4jb6-51" style="edgeStyle=orthogonalEdgeStyle;rounded=0;orthogonalLoop=1;jettySize=auto;html=1;exitX=0.5;exitY=1;exitDx=0;exitDy=0;entryX=0.5;entryY=0;entryDx=0;entryDy=0;" parent="1" source="YjNDBlbt8UtDI5Ee4jb6-45" target="YjNDBlbt8UtDI5Ee4jb6-47" edge="1">
          <mxGeometry relative="1" as="geometry" />
        </mxCell>
        <mxCell id="YjNDBlbt8UtDI5Ee4jb6-45" value="Задание начальной и конечной точки на ребре модели" style="rounded=1;whiteSpace=wrap;html=1;shadow=0;comic=0;labelBackgroundColor=none;strokeWidth=1;fontFamily=Verdana;fontSize=12;align=center;arcSize=50;" parent="1" vertex="1">
          <mxGeometry x="-600" y="310" width="160" height="60" as="geometry" />
        </mxCell>
        <mxCell id="YjNDBlbt8UtDI5Ee4jb6-53" style="edgeStyle=orthogonalEdgeStyle;rounded=0;orthogonalLoop=1;jettySize=auto;html=1;exitX=0.5;exitY=1;exitDx=0;exitDy=0;entryX=0.5;entryY=0;entryDx=0;entryDy=0;" parent="1" source="YjNDBlbt8UtDI5Ee4jb6-47" target="YjNDBlbt8UtDI5Ee4jb6-52" edge="1">
          <mxGeometry relative="1" as="geometry" />
        </mxCell>
        <mxCell id="YjNDBlbt8UtDI5Ee4jb6-47" value="Поиск кратчайшего пути между точками с помощью алгоритма A*" style="rounded=1;whiteSpace=wrap;html=1;shadow=0;comic=0;labelBackgroundColor=none;strokeWidth=1;fontFamily=Verdana;fontSize=12;align=center;arcSize=50;" parent="1" vertex="1">
          <mxGeometry x="-615" y="390" width="190" height="60" as="geometry" />
        </mxCell>
        <mxCell id="YjNDBlbt8UtDI5Ee4jb6-48" value="Если величина угла между векторами нормалей двух соседних треугольников не превышает некоторое значение, то считается, что эти два треугольника принадлежат к одной плоскости" style="shape=note;whiteSpace=wrap;html=1;rounded=0;shadow=0;comic=0;labelBackgroundColor=none;strokeWidth=1;fontFamily=Verdana;fontSize=12;align=center;size=20;" parent="1" vertex="1">
          <mxGeometry x="-400" y="105" width="220" height="125" as="geometry" />
        </mxCell>
        <mxCell id="YjNDBlbt8UtDI5Ee4jb6-50" style="edgeStyle=none;rounded=0;html=1;dashed=1;labelBackgroundColor=none;startArrow=none;startFill=0;startSize=5;endArrow=oval;endFill=0;endSize=5;jettySize=auto;orthogonalLoop=1;strokeWidth=1;fontFamily=Verdana;fontSize=12;entryX=0;entryY=1;entryDx=0;entryDy=0;entryPerimeter=0;exitX=1;exitY=0.5;exitDx=0;exitDy=0;" parent="1" source="YjNDBlbt8UtDI5Ee4jb6-43" target="YjNDBlbt8UtDI5Ee4jb6-48" edge="1">
          <mxGeometry relative="1" as="geometry">
            <mxPoint x="-350.00136645962743" y="338" as="sourcePoint" />
            <mxPoint x="-329.93925465838515" y="300" as="targetPoint" />
          </mxGeometry>
        </mxCell>
        <mxCell id="YjNDBlbt8UtDI5Ee4jb6-52" value="" style="shape=mxgraph.bpmn.shape;html=1;verticalLabelPosition=bottom;labelBackgroundColor=#ffffff;verticalAlign=top;perimeter=ellipsePerimeter;outline=end;symbol=terminate;rounded=0;shadow=0;comic=0;strokeWidth=1;fontFamily=Verdana;fontSize=12;align=center;" parent="1" vertex="1">
          <mxGeometry x="-540" y="470" width="40" height="40" as="geometry" />
        </mxCell>
        <mxCell id="gdqFLvk-_IpJA75bo0cJ-4" style="edgeStyle=orthogonalEdgeStyle;rounded=0;orthogonalLoop=1;jettySize=auto;html=1;exitX=0.5;exitY=1;exitDx=0;exitDy=0;entryX=0.5;entryY=0;entryDx=0;entryDy=0;" edge="1" parent="1" source="gdqFLvk-_IpJA75bo0cJ-1" target="gdqFLvk-_IpJA75bo0cJ-3">
          <mxGeometry relative="1" as="geometry" />
        </mxCell>
        <mxCell id="gdqFLvk-_IpJA75bo0cJ-1" value="" style="ellipse;whiteSpace=wrap;html=1;rounded=0;shadow=0;comic=0;labelBackgroundColor=none;strokeWidth=1;fillColor=#000000;fontFamily=Verdana;fontSize=12;align=center;" vertex="1" parent="1">
          <mxGeometry x="590" y="70" width="40" height="40" as="geometry" />
        </mxCell>
        <mxCell id="gdqFLvk-_IpJA75bo0cJ-9" style="edgeStyle=orthogonalEdgeStyle;rounded=0;orthogonalLoop=1;jettySize=auto;html=1;exitX=0.5;exitY=1;exitDx=0;exitDy=0;entryX=0.5;entryY=0;entryDx=0;entryDy=0;" edge="1" parent="1" source="gdqFLvk-_IpJA75bo0cJ-3" target="gdqFLvk-_IpJA75bo0cJ-7">
          <mxGeometry relative="1" as="geometry">
            <mxPoint x="610" y="220" as="targetPoint" />
          </mxGeometry>
        </mxCell>
        <mxCell id="gdqFLvk-_IpJA75bo0cJ-3" value="Извлекаем из прошлого этапа входные данные для сортировки - точки пересечения и принадлежащие этим точкам рёбра." style="rounded=1;whiteSpace=wrap;html=1;shadow=0;comic=0;labelBackgroundColor=none;strokeWidth=1;fontFamily=Verdana;fontSize=12;align=center;arcSize=50;" vertex="1" parent="1">
          <mxGeometry x="490" y="137.5" width="240" height="60" as="geometry" />
        </mxCell>
        <mxCell id="gdqFLvk-_IpJA75bo0cJ-12" style="edgeStyle=orthogonalEdgeStyle;rounded=0;orthogonalLoop=1;jettySize=auto;html=1;exitX=0.5;exitY=1;exitDx=0;exitDy=0;entryX=0.5;entryY=0;entryDx=0;entryDy=0;" edge="1" parent="1" source="gdqFLvk-_IpJA75bo0cJ-7" target="gdqFLvk-_IpJA75bo0cJ-10">
          <mxGeometry relative="1" as="geometry" />
        </mxCell>
        <mxCell id="gdqFLvk-_IpJA75bo0cJ-7" value="Создаём двусвязный список" style="rounded=1;whiteSpace=wrap;html=1;shadow=0;comic=0;labelBackgroundColor=none;strokeWidth=1;fontFamily=Verdana;fontSize=12;align=center;arcSize=50;" vertex="1" parent="1">
          <mxGeometry x="510" y="220" width="205" height="40" as="geometry" />
        </mxCell>
        <mxCell id="gdqFLvk-_IpJA75bo0cJ-13" style="edgeStyle=orthogonalEdgeStyle;rounded=0;orthogonalLoop=1;jettySize=auto;html=1;exitX=0.5;exitY=1;exitDx=0;exitDy=0;entryX=0.5;entryY=0;entryDx=0;entryDy=0;" edge="1" parent="1" source="gdqFLvk-_IpJA75bo0cJ-10" target="gdqFLvk-_IpJA75bo0cJ-11">
          <mxGeometry relative="1" as="geometry" />
        </mxCell>
        <mxCell id="gdqFLvk-_IpJA75bo0cJ-10" value="Заполняем двусязный список начиная от средней точки в две стороны: каждое ребро имеет принадлежность к двум полигонам, найдя ребро из изначального набора которое имеет один общий полигон добавляем его в список перед или после." style="rounded=1;whiteSpace=wrap;html=1;shadow=0;comic=0;labelBackgroundColor=none;strokeWidth=1;fontFamily=Verdana;fontSize=12;align=center;arcSize=50;" vertex="1" parent="1">
          <mxGeometry x="455" y="280" width="310" height="90" as="geometry" />
        </mxCell>
        <mxCell id="gdqFLvk-_IpJA75bo0cJ-15" style="edgeStyle=orthogonalEdgeStyle;rounded=0;orthogonalLoop=1;jettySize=auto;html=1;exitX=0.5;exitY=1;exitDx=0;exitDy=0;entryX=0.5;entryY=0;entryDx=0;entryDy=0;" edge="1" parent="1" source="gdqFLvk-_IpJA75bo0cJ-11" target="gdqFLvk-_IpJA75bo0cJ-14">
          <mxGeometry relative="1" as="geometry" />
        </mxCell>
        <mxCell id="gdqFLvk-_IpJA75bo0cJ-11" value="&lt;div&gt;Доходим до полигона имеющего принадлежность к первой или третьей точке из вектора&lt;font face=&quot;courier new, courier, monospace&quot;&gt;&lt;span style=&quot;font-size: 13px ; background-color: rgb(255 , 255 , 255)&quot;&gt;&amp;nbsp;V&lt;/span&gt;&lt;/font&gt;&lt;/div&gt;" style="rounded=1;whiteSpace=wrap;html=1;shadow=0;comic=0;labelBackgroundColor=none;strokeWidth=1;fontFamily=Verdana;fontSize=12;align=center;arcSize=50;" vertex="1" parent="1">
          <mxGeometry x="483.75" y="390" width="252.5" height="70" as="geometry" />
        </mxCell>
        <mxCell id="gdqFLvk-_IpJA75bo0cJ-14" value="" style="shape=mxgraph.bpmn.shape;html=1;verticalLabelPosition=bottom;labelBackgroundColor=#ffffff;verticalAlign=top;perimeter=ellipsePerimeter;outline=end;symbol=terminate;rounded=0;shadow=0;comic=0;strokeWidth=1;fontFamily=Verdana;fontSize=12;align=center;" vertex="1" parent="1">
          <mxGeometry x="590" y="490" width="40" height="40" as="geometry" />
        </mxCell>
      </root>
    </mxGraphModel>
  </diagram>
</mxfile>
